Coordinates
version=1
nRows=13
nColumns=63
inDegrees=yes

Units are S.I. units (second, meters, Newtons, ...)
If the header above contains a line with 'inDegrees', this indicates whether rotational values are in degrees (yes) or radians (no).

endheader
time	pelvis_tilt	pelvis_list	pelvis_rotation	pelvis_tx	pelvis_ty	pelvis_tz	hip_flexion_r	hip_adduction_r	hip_rotation_r	knee_angle_r	knee_angle_r_beta	ankle_angle_r	subtalar_angle_r	mtp_angle_r	hip_flexion_l	hip_adduction_l	hip_rotation_l	knee_angle_l	knee_angle_l_beta	ankle_angle_l	subtalar_angle_l	mtp_angle_l	L5_S1_Flex_Ext	L5_S1_Lat_Bending	L5_S1_axial_rotation	L4_L5_Flex_Ext	L4_L5_Lat_Bending	L4_L5_axial_rotation	L3_L4_Flex_Ext	L3_L4_Lat_Bending	L3_L4_axial_rotation	L2_L3_Flex_Ext	L2_L3_Lat_Bending	L2_L3_axial_rotation	L1_L2_Flex_Ext	L1_L2_Lat_Bending	L1_L2_axial_rotation	L1_T12_Flex_Ext	L1_T12_Lat_Bending	L1_T12_axial_rotation	Abs_r3	Abs_r2	Abs_r1	Abs_t1	Abs_t2	neck_flexion	neck_bending	neck_rotation	arm_flex_r	arm_add_r	arm_rot_r	elbow_flex_r	pro_sup_r	wrist_flex_r	wrist_dev_r	arm_flex_l	arm_add_l	arm_rot_l	elbow_flex_l	pro_sup_l	wrist_flex_l	wrist_dev_l
1.829787	-2.511652	1.520964	96.917663	0.050691	0.902265	0.547825	-1.180294	-0.533241	-8.984700	10.458340	0.182532	28.695384	0.409127	0.000000	-5.822592	1.463210	-1.717805	0.440831	0.007694	28.949270	0.880758	0.000000	-0.006388	-0.104802	0.011622	-0.011863	-0.139387	0.012349	-0.010495	-0.254815	0.012349	-0.007301	-0.254815	0.010170	-0.005932	-0.213712	0.009443	-0.003650	-0.162338	0.008717	-0.045630	-1.185540	0.064641	0.000000	0.000000	23.447134	-3.483577	3.905826	12.881689	-10.966237	164.559389	1.413760	1.868496	-8.152101	-15.940762	0.404251	-20.315590	43.087906	28.927713	87.430852	-16.857732	-1.306678
1.851064	-2.444514	1.551870	97.041564	0.050637	0.902847	0.547530	-1.247944	-0.414814	-8.900676	10.368454	0.180964	28.316063	-0.190312	0.000000	-5.884753	1.367547	-1.273974	0.451700	0.007884	28.728814	0.532185	0.000000	0.002777	-0.105206	-0.020457	0.005157	-0.139924	-0.021735	0.004562	-0.255798	-0.021735	0.003174	-0.255798	-0.017900	0.002579	-0.214536	-0.016621	0.001587	-0.162964	-0.015343	0.019836	-1.190112	-0.113775	0.000000	0.000000	23.772710	-3.764872	3.582272	13.022225	-10.917160	164.641276	1.508378	1.869069	-7.629726	-15.947530	0.076437	-20.441894	41.282325	29.579185	87.520334	-16.294939	-0.691375
1.872340	-2.352765	1.581808	97.164411	0.050572	0.903382	0.547204	-1.316696	-0.254818	-8.591960	10.238386	0.178694	27.956295	-0.948795	0.000000	-5.940565	1.246525	-0.864881	0.461218	0.008050	28.558565	0.212379	0.000000	0.012227	-0.101830	-0.049978	0.022707	-0.135433	-0.053102	0.020088	-0.247589	-0.053102	0.013974	-0.247589	-0.043731	0.011354	-0.207651	-0.040607	0.006986	-0.157734	-0.037483	0.087336	-1.151917	-0.277962	0.000000	0.000000	24.087536	-4.055030	3.255895	13.205593	-10.880448	164.727209	1.711762	1.854610	-7.160862	-15.946279	-0.208253	-20.542019	39.636136	30.208346	87.628836	-15.770723	-0.068493
1.893617	-2.249710	1.618450	97.296600	0.050483	0.903858	0.546853	-1.397750	-0.074707	-8.174519	10.084379	0.176006	27.666237	-1.707579	0.000000	-5.996769	1.113916	-0.446893	0.465825	0.008130	28.431371	-0.145028	0.000000	0.020868	-0.095697	-0.074222	0.038754	-0.127277	-0.078861	0.034284	-0.232677	-0.078861	0.023850	-0.232677	-0.064944	0.019378	-0.195145	-0.060305	0.011924	-0.148234	-0.055666	0.149059	-1.082540	-0.412800	0.000000	0.000000	24.373565	-4.305548	2.973235	13.419488	-10.877084	164.428715	2.076864	1.873913	-6.675947	-15.979611	-0.404094	-20.622086	38.295465	30.784386	87.741826	-15.296860	0.522185
1.914894	-2.146842	1.660539	97.422732	0.050400	0.904251	0.546510	-1.490817	0.118173	-7.595683	9.912577	0.173007	27.383129	-2.554295	0.000000	-6.050582	0.978692	-0.193991	0.469067	0.008187	28.390661	-0.286204	0.000000	0.027551	-0.087874	-0.100204	0.051165	-0.116872	-0.106466	0.045264	-0.213656	-0.106466	0.031488	-0.213656	-0.087678	0.025584	-0.179192	-0.081415	0.015743	-0.136116	-0.075153	0.196795	-0.994045	-0.557302	0.000000	0.000000	24.649465	-4.485550	2.788949	13.676458	-10.869974	164.289179	2.521857	1.921942	-6.389726	-15.984461	-0.574592	-20.672840	37.122263	31.308491	87.833175	-14.995057	0.960804
1.936170	-2.068019	1.705875	97.532217	0.050338	0.904549	0.546209	-1.582929	0.285792	-6.956828	9.768565	0.170494	27.152314	-3.352220	0.000000	-6.102524	0.870037	-0.052785	0.470224	0.008207	28.390432	-0.320259	0.000000	0.032589	-0.081461	-0.115411	0.060520	-0.108343	-0.122624	0.053540	-0.198064	-0.122624	0.037246	-0.198064	-0.100984	0.030262	-0.166115	-0.093771	0.018621	-0.126183	-0.086558	0.232778	-0.921500	-0.641880	0.000000	0.000000	24.862400	-4.602824	2.628174	13.904697	-10.870277	164.101662	2.957917	1.970649	-6.091051	-15.969127	-0.645415	-20.721220	36.291043	31.758983	87.932962	-14.790118	1.336509
1.957447	-2.004340	1.754714	97.608271	0.050342	0.904746	0.545965	-1.675252	0.436617	-6.278348	9.648195	0.168393	26.958747	-4.087355	0.000000	-6.153480	0.778007	-0.018460	0.471362	0.008227	28.430182	-0.257150	0.000000	0.035864	-0.075459	-0.124583	0.066603	-0.100361	-0.132369	0.058921	-0.183472	-0.132369	0.040989	-0.183472	-0.109010	0.033303	-0.153876	-0.101223	0.020493	-0.116886	-0.093437	0.256174	-0.853610	-0.692892	0.000000	0.000000	25.020753	-4.648604	2.535607	14.124175	-10.874144	163.871135	3.403354	2.033645	-5.830332	-15.960571	-0.649178	-20.770865	35.795438	32.130759	88.008234	-14.717052	1.610875
1.978723	-1.958968	1.812791	97.647731	0.050420	0.904869	0.545776	-1.771804	0.569333	-5.552091	9.552304	0.166719	26.802149	-4.807492	0.000000	-6.216341	0.704719	-0.077269	0.463964	0.008098	28.484177	-0.109035	0.000000	0.036939	-0.070212	-0.124692	0.068599	-0.093382	-0.132486	0.060687	-0.170713	-0.132486	0.042217	-0.170713	-0.109106	0.034301	-0.143176	-0.101313	0.021107	-0.108758	-0.093519	0.263851	-0.794250	-0.693501	0.000000	0.000000	25.106123	-4.592162	2.549479	14.290035	-10.881069	163.614650	3.788685	2.068558	-5.638883	-15.957077	-0.571689	-20.799256	35.675353	32.357843	88.095064	-14.770998	1.781534
2.000000	-1.931529	1.878890	97.705500	0.050470	0.904934	0.545655	-1.878222	0.665729	-5.027305	9.477313	0.165410	26.738965	-5.257531	0.000000	-6.278720	0.648871	-0.020135	0.465879	0.008131	28.515255	-0.107818	0.000000	0.036572	-0.066226	-0.125528	0.067918	-0.088081	-0.133373	0.060084	-0.161022	-0.133373	0.041798	-0.161022	-0.109837	0.033961	-0.135048	-0.101991	0.020897	-0.102584	-0.094146	0.261231	-0.749163	-0.698149	0.000000	0.000000	25.124227	-4.510234	2.571042	14.402361	-10.894041	163.316657	4.103953	2.141250	-5.474488	-15.969619	-0.466735	-20.827104	35.725212	32.505038	88.157625	-14.811477	1.920352
2.021277	-1.925081	1.957289	97.736588	0.050591	0.904962	0.545583	-1.991196	0.726223	-4.641693	9.422230	0.164449	26.784322	-5.476560	0.000000	-6.354575	0.612614	-0.044655	0.468771	0.008182	28.559474	-0.014327	0.000000	0.035023	-0.064727	-0.113738	0.065041	-0.086086	-0.120847	0.057539	-0.157376	-0.120847	0.040027	-0.157376	-0.099521	0.032522	-0.131991	-0.092412	0.020012	-0.100262	-0.085304	0.250164	-0.732200	-0.632577	0.000000	0.000000	25.073234	-4.383437	2.587261	14.435814	-10.905958	162.961738	4.326397	2.208246	-5.341053	-15.983270	-0.269196	-20.863566	36.242897	32.490548	88.201624	-14.948565	1.982318
2.042553	-1.934380	2.048565	97.767009	0.050719	0.904963	0.545597	-2.117854	0.746517	-4.519643	9.371081	0.163556	26.958572	-5.318782	0.000000	-6.440647	0.591564	-0.151204	0.470740	0.008216	28.625294	0.186618	0.000000	0.030895	-0.065213	-0.099648	0.057375	-0.086734	-0.105876	0.050757	-0.158559	-0.105876	0.035310	-0.158559	-0.087192	0.028689	-0.132983	-0.080964	0.017653	-0.101015	-0.074736	0.220680	-0.737705	-0.554213	0.000000	0.000000	25.026855	-4.299072	2.530652	14.417387	-10.914707	162.649852	4.437174	2.266356	-5.179781	-15.998678	-0.089716	-20.901072	36.744929	32.434248	88.234073	-14.916568	2.119916
2.063830	-1.967496	2.144504	97.789596	0.050910	0.904948	0.545649	-2.246733	0.731772	-4.509832	9.333912	0.162907	27.206660	-5.029462	0.000000	-6.531560	0.592312	-0.233864	0.473522	0.008265	28.689000	0.359615	0.000000	0.026952	-0.069763	-0.079251	0.050053	-0.092784	-0.084204	0.044280	-0.169621	-0.084204	0.030804	-0.169621	-0.069344	0.025028	-0.142260	-0.064391	0.015401	-0.108062	-0.059438	0.192519	-0.789169	-0.440768	0.000000	0.000000	24.958878	-4.185120	2.453614	14.329038	-10.908635	162.336746	4.449870	2.313047	-5.060961	-16.047836	0.115989	-20.955166	37.491267	32.260420	88.245846	-14.928451	2.187780
2.085106	-2.014934	2.241090	97.793401	0.051125	0.904938	0.545793	-2.368570	0.683001	-4.634245	9.313657	0.162554	27.475155	-4.571085	0.000000	-6.620282	0.611413	-0.300113	0.473160	0.008258	28.752442	0.495873	0.000000	0.022264	-0.076062	-0.050131	0.041346	-0.101163	-0.053264	0.036577	-0.184938	-0.053264	0.025445	-0.184938	-0.043864	0.020674	-0.155106	-0.040731	0.012722	-0.117821	-0.037598	0.159029	-0.860432	-0.278812	0.000000	0.000000	24.901835	-4.073033	2.380556	14.188503	-10.900067	162.049507	4.360656	2.353193	-4.982503	-16.078470	0.378779	-21.013608	38.510284	31.974671	88.210877	-14.969453	2.193896
